<?xml version="1.0" encoding="UTF-8"?>
<svg id="Layer_1" xmlns="http://www.w3.org/2000/svg" version="1.1" viewBox="0 0 500 500">
  <!-- Generator: Adobe Illustrator 30.1.0, SVG Export Plug-In . SVG Version: 2.1.1 Build 136)  -->
  <defs>
    <style>
      .st0 {
        fill: #fff;
      }
    </style>
  </defs>
  <rect class="st0" width="500" height="500"/>
  <path id="head" d="M291.1,279c-46,14.5-124,4.3-137.4-28.3-13.4-32.7,8.6-62.5,8.6-62.5,0,0-22.9-57.1-36.5-114.3,0,0,25-3.5,73.4,82,0,0,61.7-12.3,81.3-7.2,0,0,26.8-88.4,51.9-92.1,0,0-2.9,105.3-8.6,108.3,0,0,84.5,77.1-32.7,114.1h0Z"/>
  <g id="eyewhites">
    <path id="left" class="st0" d="M177.6,239.1s-3-51.1,42.7-24.9c23.1,13.3-12.4,49.2-42.7,24.9Z"/>
    <path id="right" class="st0" d="M271.9,218s4.3-11.5,16.2-19c11.3-7.2,30.1-11.1,34.8,13.4,6.4,34-47.6,22-50.9,5.6h0Z"/>
  </g>
  <g id="pupils">
    <path d="M202.2,212.2c4.5,4.4,8.2,9,10.8,13.9,1.6,3.4,2.6,6.9,3.4,10.5.2,1.6.8,3,.9,5.2-6.9.8-13.5-2-17.6-6.2-6.5-6.9-6.6-18,2.6-23.4h0Z"/>
    <path d="M289.8,202.3c8.9,2.3,13.7,9.1,13.3,15.1-.4,6.2-5.5,12-14.8,13.7-2.9-10-2-19.1,1.4-28.7h0Z"/>
  </g>
  <g id="whiskers">
    <path d="M152,255.8c-1.6-2.7-11.3,3.1-13.6,4.2-4.5,2.8-8.5,5.4-11.5,11.1-.5-3.8.9-7.7,2.7-10.6,3.8-5.7,9.3-8.7,14.8-9,2.1-.2,7.3.5,7.4,4.2h0Z"/>
    <path d="M162.9,269.9c-2.7-1.9-9.9,4.8-12.1,6.9-3.7,3.7-6.3,7.3-7.6,13-4.6-9,3.6-19.6,11.5-21.9,2.4-.7,7.1-1.3,8.1,2h.1Z"/>
    <path d="M384.4,247.3c0-3.5-12.1-6.6-14.7-7.4-5.6-1.3-10.6-2.5-16.3-.2,1.5-3.5,4.8-5.6,7.9-6.5,6.4-1.6,13,.4,18.4,4.6,2,1.6,6.5,6.3,4.8,9.5h0Z"/>
    <path d="M370.2,269.4c1.4-4.3-5.9-10.1-8.8-12-4.4-3.1-9.4-4.3-14.8-4,7.6-8.6,20.7-3.3,24.6,5.9,1.2,2.8,2.4,8.1-1,10.1h0Z"/>
  </g>
  <g id="txt_modern">
    <path d="M50.8,442.9v-45.4h12.5v45.4h-12.5Z"/>
    <path d="M71.1,442.9v-45.4h17.5c5,0,9.2,1,12.6,3,3.4,2,5.9,4.8,7.7,8.2,1.7,3.4,2.6,7.2,2.6,11.4s-1,8.6-2.8,12c-1.9,3.4-4.6,6.1-8,7.9-3.4,1.9-7.5,2.8-12.1,2.8h-17.5ZM98.8,420.1c0-2.3-.4-4.4-1.2-6.2-.8-1.8-2-3.1-3.5-4.1-1.5-1-3.4-1.5-5.5-1.5h-5v23.7h5c2.2,0,4-.5,5.5-1.5,1.5-1,2.7-2.4,3.5-4.3.8-1.8,1.2-3.8,1.2-6.1Z"/>
    <path d="M136.7,443.2c-3.6,0-6.7-.6-9.3-1.8-2.6-1.2-4.7-2.8-6.4-4.9s-2.8-4.5-3.6-7.2c-.8-2.7-1.2-5.5-1.2-8.5v-23.3h12.5v23.3c0,1.5.1,2.9.4,4.3.3,1.4.8,2.6,1.4,3.6.6,1.1,1.5,1.9,2.5,2.5,1,.6,2.2.9,3.7.9s2.8-.3,3.8-.9c1-.6,1.8-1.5,2.5-2.6.6-1.1,1.1-2.3,1.4-3.7s.4-2.8.4-4.2v-23.3h12.5v23.3c0,3.2-.4,6.1-1.2,8.8-.8,2.7-2.1,5.1-3.7,7.2s-3.8,3.6-6.4,4.8c-2.6,1.1-5.6,1.7-9.2,1.7Z"/>
    <path d="M176.9,420.5v22.3h-12.5v-45.4h9.7l18.2,23.1v-23.1h12.5v45.4h-9.9l-18-22.3Z"/>
    <path d="M226.9,398.1c-3.4-10.4,7.4-25.4,22.4-36.7,26.5-19.9,53.1-26.8,53.1-26.8-14.1,5.2-70.1,33.8-64.1,63.5,0,.4,4.2,11.7,4.2,11.7l4-11.4c17.4-47.2,65.7-63.7,69.9-63.7-5,1.9-43.4,19.7-58.5,65l-8.2,18.7,4.1,10.1,11.6-34.3c17.1-42.5,57.6-56.5,60.5-56.5-5.2,3.7-38.9,19.2-53.3,65.4l-12.5,39.9h-10.8l-6.7-16.3-6.6,16.3h-10.8l-17.2-44.8s-1.1-2.2-.7-7.8c1.2-17.4,38.9-43.7,73.2-52.4,0,0-53.4,22-59.7,50.8-1.2,5.7-.2,9.4-.2,9.4l10.7,30.3,4-10.1-8.4-20.2Z"/>
    <path d="M299,443.2c-3.5,0-6.6-.7-9.4-2-2.8-1.3-5.2-3-7.3-5.2-2-2.2-3.6-4.7-4.7-7.4-1.1-2.8-1.6-5.6-1.6-8.5s.6-5.9,1.7-8.6c1.2-2.7,2.8-5.2,4.8-7.3,2.1-2.2,4.5-3.8,7.4-5.1,2.8-1.2,5.9-1.9,9.3-1.9s6.6.7,9.4,2c2.8,1.3,5.2,3.1,7.2,5.3,2,2.2,3.6,4.7,4.6,7.5,1.1,2.8,1.6,5.6,1.6,8.5s-.6,5.8-1.7,8.6c-1.1,2.7-2.7,5.2-4.8,7.3-2.1,2.2-4.5,3.9-7.3,5.1-2.8,1.3-5.9,1.9-9.3,1.9ZM288.7,420.1c0,1.5.2,3,.6,4.4.4,1.4,1.1,2.7,1.9,3.8.9,1.1,1.9,2,3.2,2.7,1.3.7,2.8,1,4.6,1s3.3-.3,4.7-1c1.3-.7,2.4-1.6,3.2-2.8.8-1.2,1.4-2.5,1.9-3.9.4-1.4.6-2.9.6-4.4s-.2-3-.6-4.4c-.4-1.4-1.1-2.7-1.9-3.8-.9-1.1-1.9-2-3.3-2.7-1.3-.6-2.9-1-4.6-1s-3.3.3-4.6,1c-1.3.7-2.4,1.6-3.2,2.7-.9,1.1-1.5,2.4-1.9,3.8-.4,1.4-.6,2.9-.6,4.4Z"/>
    <path d="M327.4,442.9v-45.4h20.9c2.2,0,4.3.4,6.1,1.3,1.9.9,3.5,2.1,4.9,3.6,1.4,1.5,2.4,3.2,3.2,5.1.7,1.9,1.1,3.8,1.1,5.7s-.3,3.4-.8,5.1c-.5,1.6-1.3,3.1-2.2,4.4-1,1.3-2.2,2.5-3.5,3.5l9.6,16.7h-13.7l-8-13.9h-5.1v13.9h-12.5ZM339.9,418h7.9c.5,0,1-.2,1.5-.6.5-.4.9-.9,1.2-1.7.3-.7.5-1.6.5-2.6s-.2-2-.5-2.7c-.4-.7-.8-1.2-1.3-1.6-.5-.4-1.1-.6-1.6-.6h-7.5v9.7Z"/>
    <path d="M370.6,442.9v-45.4h12.5v17.3l13.8-17.3h14.1l-16.5,20.3,17.7,25.1h-14.3l-11.3-16.7-3.5,3.6v13.1h-12.5Z"/>
    <path d="M442.3,412.3c-1.5-.9-2.8-1.5-4-2.1-1.2-.5-2.5-1-3.9-1.4-1.4-.4-2.8-.6-4.2-.6s-1.9.2-2.6.5c-.7.3-1,.9-1,1.7s.3,1.4,1,1.8c.7.5,1.7.9,2.9,1.3,1.3.4,2.8.8,4.5,1.4,2.8.8,5.2,1.8,7.3,2.9,2,1.1,3.6,2.5,4.7,4.2,1.1,1.7,1.7,4,1.7,6.8s-.5,5-1.5,6.8c-1,1.8-2.3,3.3-4,4.4-1.7,1.1-3.5,1.9-5.6,2.4-2,.5-4.1.7-6.3.7s-4.4-.2-6.8-.7c-2.4-.4-4.7-1.1-6.9-1.9-2.2-.8-4.2-1.7-6.1-2.8l5.4-10.9c1.7,1,3.3,1.9,4.7,2.5s3,1.2,4.7,1.7c1.7.5,3.5.8,5.2.8s2.3-.2,2.8-.5c.5-.3.8-.8.8-1.4,0-.9-.5-1.6-1.4-2.1-.9-.5-2.2-1-3.7-1.4-1.5-.4-3.2-1-5-1.6-2.6-.9-4.8-1.9-6.5-3-1.7-1.1-3-2.5-3.8-4-.8-1.5-1.2-3.4-1.2-5.6,0-3.3.8-6.1,2.4-8.4,1.6-2.2,3.7-3.9,6.2-5.1,2.6-1.2,5.4-1.7,8.3-1.7s4.4.3,6.4.8c2.1.5,4,1.2,5.8,2,1.8.8,3.4,1.5,4.8,2.2l-5.4,10.3Z"/>
  </g>
</svg>